<svg xmlns="http://www.w3.org/2000/svg" viewBox="0 0 479.998 479.998"><path d="M384 275.992c-13.255 0-24 10.745-24 24s10.745 24 24 24 24-10.745 24-24-10.745-24-24-24zm0 32a8 8 0 110-16 8 8 0 010 16zm-288-32c-13.255 0-24 10.745-24 24s10.745 24 24 24 24-10.745 24-24-10.745-24-24-24zm0 32a8 8 0 110-16 8 8 0 010 16z"/><path d="M476.8 261.592l-64-48a7.998 7.998 0 00-4.8-1.6h-62.456l-78.576-31.432a8.003 8.003 0 00-2.968-.568h-64a7.412 7.412 0 00-1.6.16l-79.8 15.952-64.64 9.24-10.144-25.352H56a8 8 0 008-8v-32a8 8 0 00-6.688-7.888l-48-8A8 8 0 000 131.992v40a8 8 0 008 8h18.584l11.072 27.68-30.792 4.4A7.999 7.999 0 000 219.992v96a8 8 0 008 8h37.48c13.189 27.901 46.5 39.828 74.401 26.639a55.888 55.888 0 0026.639-26.639h186.96c13.189 27.901 46.5 39.828 74.401 26.639a55.888 55.888 0 0026.639-26.639H464a8 8 0 007.888-6.68l8-48a8 8 0 00-3.088-7.72zm-260.8-65.6h46.464l64.976 25.992-42 30.008H216v-56zm-16 .16v55.84h-12.992l-49.536-43.336L200 196.152zm-184-32.16V141.44l32 5.328v17.224H16zm80 176c-22.08-.026-39.974-17.92-40-40 0-22.091 17.909-40 40-40s40 17.909 40 40-17.909 40-40 40zm288 0c-22.08-.026-39.974-17.92-40-40 0-22.091 17.909-40 40-40s40 17.909 40 40-17.909 40-40 40zm73.224-32H439.36c4.662-30.575-16.343-59.14-46.918-63.802-30.575-4.662-59.14 16.343-63.802 46.918a56.02 56.02 0 000 16.884H151.36c4.663-30.575-16.343-59.14-46.918-63.802-30.575-4.662-59.14 16.343-63.802 46.918a56.02 56.02 0 000 16.884H16v-48h16v-16H16v-17.064l101.496-14.496 61.24 53.6a8.002 8.002 0 005.264 1.96h104a8 8 0 004.648-1.488l53.912-38.512h58.776l57.976 43.48-6.088 36.52z"/></svg>