<svg height="512" width="512" xmlns="http://www.w3.org/2000/svg"><path d="M481.542 155.422c-3.359-25.733-25.408-45.672-52.042-45.672H287v-52.5a7.5 7.5 0 00-7.5-7.5H7.5a7.5 7.5 0 00-7.5 7.5v330a7.5 7.5 0 007.5 7.5h22.876c3.775 37.846 35.8 67.5 74.624 67.5s70.849-29.654 74.624-67.5h122.752c3.775 37.846 35.8 67.5 74.624 67.5s70.849-29.654 74.624-67.5H504.5a7.5 7.5 0 007.5-7.5v-195c0-18.27-13.136-33.522-30.458-36.828zM429.5 124.75c18.11 0 33.261 12.904 36.745 30H339.5c-4.143 0-7.5 3.358-7.5 7.5s3.357 7.5 7.5 7.5h135c9.777 0 18.114 6.271 21.21 15H474.5a7.5 7.5 0 00-7.5 7.5v97.5a7.5 7.5 0 007.5 7.5H497v52.5h-55.09c-12.988-22.395-37.21-37.5-64.91-37.5-38.824 0-70.849 29.654-74.624 67.5H287v-210h22.5c4.143 0 7.5-3.358 7.5-7.5s-3.357-7.5-7.5-7.5H287v-30zm67.5 75v82.5h-15v-82.5zm-225 150H169.91c-12.989-22.395-37.211-37.5-64.91-37.5s-51.921 15.105-64.91 37.5H15v-52.5h257zm-95.453 15H272v15h-92.376a74.476 74.476 0 00-3.077-15zM272 64.75v217.5H15V64.75zm-257 300h18.453a74.476 74.476 0 00-3.077 15H15zm90 82.5c-33.084 0-60-26.916-60-60s26.916-60 60-60 60 26.916 60 60-26.916 60-60 60zm272 0c-33.084 0-60-26.916-60-60s26.916-60 60-60 60 26.916 60 60-26.916 60-60 60zm74.624-67.5a74.476 74.476 0 00-3.077-15H497v15z"/><path d="M369.5 297.25h75a7.5 7.5 0 007.5-7.5v-97.5a7.5 7.5 0 00-7.5-7.5h-105a7.5 7.5 0 00-7.5 7.5v67.5c0 20.678 16.822 37.5 37.5 37.5zm-22.5-97.5h90v82.5h-67.5c-12.406 0-22.5-10.093-22.5-22.5zm30 142.5c-24.813 0-45 20.187-45 45s20.187 45 45 45 45-20.187 45-45-20.187-45-45-45zm0 75c-16.542 0-30-13.458-30-30s13.458-30 30-30 30 13.458 30 30-13.458 30-30 30zm-272-75c-24.813 0-45 20.187-45 45s20.187 45 45 45 45-20.187 45-45-20.187-45-45-45zm0 75c-16.542 0-30-13.458-30-30s13.458-30 30-30 30 13.458 30 30-13.458 30-30 30z"/></svg>