<svg height="640" viewBox="0 -81 480 480" width="640" xmlns="http://www.w3.org/2000/svg"><path d="M473.602 157.816L400 143.098V93.656a7.997 7.997 0 00-5.313-7.535L288 48.055V21.656A8.001 8.001 0 00285.656 16l-16-16-11.312 11.313L272 24.968v20.687h-40a8 8 0 00-8 8v120H88a8 8 0 00-8 8v24H8a8 8 0 00-8 8v32a8 8 0 008 8h8.64c-3.855 26.399 11.477 51.844 36.618 60.77 25.14 8.93 53.09-1.153 66.742-24.074 13.555 23.101 41.602 33.324 66.844 24.363 25.238-8.961 40.562-34.582 36.515-61.059H240v24a8 8 0 008 8h56a8 8 0 008-8v-24h16.64a55.992 55.992 0 0024.95 55.465 55.999 55.999 0 0060.82 0 55.992 55.992 0 0024.95-55.465H472a8 8 0 008-8v-80c0-3.8-2.676-7.078-6.398-7.84zM464 189.656h-32v-23.84l32 6.399zm-80-24h-68.688l18.344-18.344L322.344 136 304 154.344v-52.688h68.688L346.344 128l11.312 11.313L384 112.969zm-96-64v136h-16v-136zm57.816-16H288V65.008zM240 61.656h32v24h-8a8 8 0 00-8 8v144h-16zm-144 128h128v16H96zm24 43.305a56.26 56.26 0 00-8.879-11.305h17.758A56.26 56.26 0 00120 232.961zm-104 4.695v-16h16.879a56.308 56.308 0 00-11.399 16zm56 64c-22.09 0-40-17.91-40-40s17.91-40 40-40 40 17.91 40 40c-.027 22.082-17.918 39.973-40 40zm96 0c-22.09 0-40-17.91-40-40s17.91-40 40-40 40 17.91 40 40c-.027 22.082-17.918 39.973-40 40zm39.121-80H224v16h-5.48a56.308 56.308 0 00-11.399-16zm88.879 48h-40v-16h40zm88 32c-22.09 0-40-17.91-40-40s17.91-40 40-40 40 17.91 40 40c-.027 22.082-17.918 39.973-40 40zm50.52-64a55.878 55.878 0 00-101.04 0H304v-24h32v-16h-32v-16h88a8 8 0 008-8v-14.242l16 3.203v35.04a8 8 0 008 8h40v32zm0 0"/><path d="M168 237.656c-13.254 0-24 10.746-24 24s10.746 24 24 24 24-10.746 24-24-10.746-24-24-24zm0 32a8 8 0 110-16 8 8 0 010 16zm-96-32c-13.254 0-24 10.746-24 24s10.746 24 24 24 24-10.746 24-24-10.746-24-24-24zm0 32a8 8 0 110-16 8 8 0 010 16zm312-32c-13.254 0-24 10.746-24 24s10.746 24 24 24 24-10.746 24-24-10.746-24-24-24zm0 32a8 8 0 110-16 8 8 0 010 16zm0 0"/></svg>