<svg height="640" viewBox="0 -128 480 480" width="640" xmlns="http://www.w3.org/2000/svg"><path d="M476.406 86.398l-24.734-54.511A54.745 54.745 0 00402.078 0H47.441C21.25.027.027 21.25 0 47.441V166c.02 14.352 11.648 25.98 26 26h38.8c3.786 18.645 20.177 32.04 39.2 32.04s35.414-13.395 39.2-32.04h193.6c3.786 18.645 20.177 32.04 39.2 32.04s35.414-13.395 39.2-32.04h42.562c12.277-.012 22.226-9.96 22.238-22.238V102.96a39.851 39.851 0 00-3.594-16.563zm-17.344.524L384 80.64V47.039l53.938-6.742zM104 208c-13.254 0-24-10.746-24-24s10.746-24 24-24 24 10.746 24 24-10.746 24-24 24zm272 0c-13.254 0-24-10.746-24-24s10.746-24 24-24 24 10.746 24 24-10.746 24-24 24zm81.762-32h-42.563c-3.785-18.645-20.176-32.04-39.199-32.04s-35.414 13.395-39.2 32.04H143.2c-3.786-18.645-20.177-32.04-39.2-32.04S68.586 157.356 64.8 176H26c-5.52-.008-9.992-4.48-10-10V47.441C16.02 30.082 30.082 16.02 47.441 16h354.637a38.567 38.567 0 0125.29 9.52L375.503 32H64a8 8 0 00-8 8v48a8 8 0 008 8h311.664L464 103.36v66.402a6.248 6.248 0 01-6.238 6.238zM72 80V48h56v32zm72-32h64v32h-64zm80 0h56v32h-56zm72 0h72v32h-72zm0 0"/></svg>