<svg xmlns="http://www.w3.org/2000/svg" viewBox="0 0 512 512"><path d="M422 256c-13.167 0-25.683 2.843-36.966 7.946l-13.776-20.542A132.712 132.712 0 01437 226c8.284 0 15-6.716 15-15v-30c0-57.897-47.103-105-105-105h-30c-8.284 0-15 6.716-15 15s6.716 15 15 15h15v30h-46a15.001 15.001 0 00-12.481 6.68L257.972 166H133.028l-7.532-11.298A41.918 41.918 0 0090.55 136H15c-8.284 0-15 6.716-15 15 0 38.538 29.218 70.381 66.666 74.54l20.344 30.515C38.763 257.639 0 297.375 0 346c0 49.626 40.374 90 90 90 38.422 0 72.331-24.601 84.861-60h89.005c19.951 0 37.272-14.199 41.184-33.762l2.125-10.626c5.57-27.849 19.914-52.22 39.828-70.514l13.139 19.593C342.821 297.103 332 320.311 332 346c0 49.626 40.374 90 90 90s90-40.374 90-90-40.374-90-90-90zm-184.028-60l-20 30h-44.944l-20-30h84.944zM90 406c-33.084 0-60-26.916-60-60s26.916-60 60-60c2.706 0 5.381.192 8.024.543C76.512 289.906 60 308.56 60 331c0 24.813 20.187 44.9 45 44.9h36.954C131.451 394.002 111.821 406 90 406zm15-60c-8.271 0-15-6.729-15-15s6.729-15 15-15h81.729l15.001 30H105zm172.757-20.272l-2.125 10.626c-1.118 5.59-6.067 9.646-11.767 9.646h-21.177a11.934 11.934 0 01-10.733-6.633l-22.539-45.075A14.999 14.999 0 00196 286h-46.55a11.975 11.975 0 01-9.984-5.344l-51.985-77.977A15.003 15.003 0 0075 196c-19.556 0-36.239-12.539-42.43-30h57.98c4.021 0 7.754 1.998 9.985 5.344l12.011 18.016.031.047 39.943 59.914A15 15 0 00165 256h61c5.015 0 9.699-2.507 12.481-6.679l39.942-59.914.032-.048 15.572-23.459h52.972c8.284 0 15-6.616 15-14.9v-43.493c34.191 6.969 60 37.275 60 73.493v15.69c-70.768 6.531-130.191 58.782-144.242 129.038zM422 406c-33.084 0-60-26.916-60-60 0-15.29 5.758-29.255 15.207-39.862l32.335 48.217c4.615 6.882 13.935 8.717 20.813 4.104 6.88-4.614 8.718-13.932 4.104-20.813l-32.351-48.241A59.677 59.677 0 01422 286c33.084 0 60 26.916 60 60s-26.916 60-60 60z"/></svg>