<svg height="480pt" viewBox="0 -81 480 480" width="480pt" xmlns="http://www.w3.org/2000/svg"><path d="m473.601562 157.816406-73.601562-14.71875v-49.441406c0-3.382812-2.125-6.398438-5.3125-7.535156l-106.6875-38.066406v-26.398438c0-2.121094-.84375-4.15625-2.34375-5.65625l-16-16-11.3125 11.3125 13.65625 13.65625v20.6875h-40c-4.417969 0-8 3.582031-8 8v120h-136c-4.417969 0-8 3.582031-8 8v24h-72c-4.417969 0-8 3.582031-8 8v32c0 4.417969 3.582031 8 8 8h8.640625c-3.855469 26.398438 11.476563 51.84375 36.617187 60.769531 25.140626 8.929688 53.089844-1.152343 66.742188-24.074219 13.554688 23.101563 41.601562 33.324219 66.84375 24.363282 25.238281-8.960938 40.5625-34.582032 36.515625-61.058594h16.640625v24c0 4.417969 3.582031 8 8 8h56c4.417969 0 8-3.582031 8-8v-24h16.640625c-3.324219 21.789062 6.441406 43.496094 24.949219 55.464844 18.507812 11.96875 42.3125 11.96875 60.820312 0 18.507813-11.96875 28.273438-33.675782 24.949219-55.464844h32.640625c4.417969 0 8-3.582031 8-8v-80c0-3.800781-2.675781-7.078125-6.398438-7.839844zm-9.601562 31.839844h-32v-23.839844l32 6.398438zm-80-24h-68.6875l18.34375-18.34375-11.3125-11.3125-18.34375 18.34375v-52.6875h68.6875l-26.34375 26.34375 11.3125 11.3125 26.34375-26.34375zm-96-64v136h-16v-136zm57.816406-16h-57.816406v-20.648438zm-105.816406-24h32v24h-8c-4.417969 0-8 3.582031-8 8v144h-16zm-144 128h128v16h-128zm24 43.304688c-2.464844-4.132813-5.449219-7.933594-8.878906-11.304688h17.757812c-3.429687 3.371094-6.414062 7.171875-8.878906 11.304688zm-104 4.695312v-16h16.878906c-4.707031 4.625-8.566406 10.039062-11.398437 16zm56 64c-22.089844 0-40-17.910156-40-40s17.910156-40 40-40 40 17.910156 40 40c-.027344 22.082031-17.917969 39.972656-40 40zm96 0c-22.089844 0-40-17.910156-40-40s17.910156-40 40-40 40 17.910156 40 40c-.027344 22.082031-17.917969 39.972656-40 40zm39.121094-80h16.878906v16h-5.480469c-2.832031-5.960938-6.691406-11.375-11.398437-16zm88.878906 48h-40v-16h40zm88 32c-22.089844 0-40-17.910156-40-40s17.910156-40 40-40 40 17.910156 40 40c-.027344 22.082031-17.917969 39.972656-40 40zm50.519531-64c-9.234375-19.539062-28.910156-32-50.519531-32s-41.285156 12.460938-50.519531 32h-29.480469v-24h32v-16h-32v-16h88c4.417969 0 8-3.582031 8-8v-14.242188l16 3.203126v35.039062c0 4.417969 3.582031 8 8 8h40v32zm0 0"/><path d="m168 237.65625c-13.253906 0-24 10.746094-24 24s10.746094 24 24 24 24-10.746094 24-24-10.746094-24-24-24zm0 32c-4.417969 0-8-3.582031-8-8s3.582031-8 8-8 8 3.582031 8 8-3.582031 8-8 8zm0 0"/><path d="m72 237.65625c-13.253906 0-24 10.746094-24 24s10.746094 24 24 24 24-10.746094 24-24-10.746094-24-24-24zm0 32c-4.417969 0-8-3.582031-8-8s3.582031-8 8-8 8 3.582031 8 8-3.582031 8-8 8zm0 0"/><path d="m384 237.65625c-13.253906 0-24 10.746094-24 24s10.746094 24 24 24 24-10.746094 24-24-10.746094-24-24-24zm0 32c-4.417969 0-8-3.582031-8-8s3.582031-8 8-8 8 3.582031 8 8-3.582031 8-8 8zm0 0"/></svg>