<?xml version="1.0" encoding="utf-8"?>
<!-- Generator: Adobe Illustrator 17.0.2, SVG Export Plug-In . SVG Version: 6.00 Build 0)  -->
<!DOCTYPE svg PUBLIC "-//W3C//DTD SVG 1.1//EN" "http://www.w3.org/Graphics/SVG/1.1/DTD/svg11.dtd">
<svg version="1.1" id="Layer_1" xmlns="http://www.w3.org/2000/svg" xmlns:xlink="http://www.w3.org/1999/xlink" x="0px" y="0px"
	 width="365.492px" height="53.858px" viewBox="0 0 365.492 53.858" enable-background="new 0 0 365.492 53.858"
	 xml:space="preserve">
<g>
	<g>
		<g>
			<path fill="#FFFFFF" d="M38.915,6.449l-5.022,8.698c1.219,0.259,2.37,0.704,3.422,1.301l7.86-13.614H17.579L3.668,26.93h4.173
				L19.665,6.45h19.25V6.449z"/>
			<path fill="#FFFFFF" d="M37.315,37.41c-1.753,0.995-3.778,1.566-5.938,1.566c-6.654,0-12.047-5.394-12.047-12.047l0,0H3.668
				l13.911,24.095h27.595L37.315,37.41z"/>
			<path fill="#ED771B" d="M31.377,18.496c4.65,0,8.433,3.783,8.433,8.433s-3.783,8.433-8.433,8.433s-8.433-3.783-8.433-8.433
				C22.944,22.279,26.727,18.496,31.377,18.496 M31.377,14.882c-6.654,0-12.047,5.394-12.047,12.047
				c0,6.654,5.394,12.047,12.047,12.047s12.047-5.394,12.047-12.047C43.424,20.276,38.031,14.882,31.377,14.882L31.377,14.882z"/>
		</g>
		<circle fill="#FFFFFF" cx="44.767" cy="13.064" r="2.409"/>
		<circle fill="#FFFFFF" cx="50.653" cy="26.93" r="3.012"/>
		<circle fill="#FFFFFF" cx="49.12" cy="19.398" r="2.711"/>
		<circle fill="#FFFFFF" cx="44.732" cy="40.877" r="2.409"/>
		<circle fill="#FFFFFF" cx="49.111" cy="34.505" r="2.711"/>
	</g>
	<g>
		<path fill="#FFFFFF" d="M76.537,43.752h0.972v7.244h-0.972v-5.867l-3.86,5.867h-0.972v-7.244h0.972v5.827L76.537,43.752z"/>
		<path fill="#FFFFFF" d="M83.384,50.996h-0.972v-7.244h0.972v3.022h3.643v-3.022h0.972v7.244h-0.972v-3.405h-3.643V50.996z"/>
		<path fill="#FFFFFF" d="M92.155,44.569v-0.817h5.681v0.818h-2.348v6.425h-0.972V44.57h-2.36V44.569z"/>
		<path fill="#FFFFFF" d="M106.765,46.846v0.817h-3.798v2.514h4.305v0.818h-5.277v-7.244h5.163v0.818h-4.191v2.277h3.798V46.846z"/>
		<path fill="#FFFFFF" d="M114.419,43.752c1.479,0,2.453,0.579,2.453,2.079c0,1.355-0.672,2.277-2.546,2.277h-1.883v2.887h-0.972
			v-7.244H114.419z M112.443,47.291h1.779c1.148,0,1.655-0.486,1.655-1.438c0-0.89-0.538-1.283-1.655-1.283h-1.779V47.291z"/>
		<path fill="#FFFFFF" d="M121.059,50.996h-1.045l2.743-7.244h1.035l2.743,7.244h-1.045l-0.683-1.872h-3.063L121.059,50.996z
			 M124.537,48.305l-1.262-3.57l-1.262,3.57H124.537z"/>
		<path fill="#FFFFFF" d="M134.747,43.752h1.19l-3.446,3.353l3.674,3.891h-1.272l-3.405-3.777v3.777h-0.972v-7.244h0.972v3.301
			L134.747,43.752z"/>
		<path fill="#FFFFFF" d="M139.401,44.569v-0.817h5.681v0.818h-2.348v6.425h-0.972V44.57h-2.36V44.569z"/>
		<path fill="#FFFFFF" d="M154.072,43.752h0.972v7.244h-0.972v-5.867l-3.86,5.867h-0.972v-7.244h0.972v5.827L154.072,43.752z"/>
		<path fill="#FFFFFF" d="M163.124,43.752c1.759,0,2.163,0.994,2.163,1.843c0,0.776-0.528,1.428-1.21,1.552v0.031
			c0.6,0.103,1.521,0.507,1.521,1.8c0,1.045-0.528,2.018-2.587,2.018h-3.063v-7.244H163.124z M160.919,46.826h1.956
			c1.066,0,1.417-0.528,1.417-1.128c0-0.414-0.166-1.128-1.386-1.128h-1.986v2.255H160.919z M160.919,50.177h2.017
			c0.672,0,1.666-0.103,1.666-1.283c0-0.931-0.652-1.252-1.666-1.252h-2.017V50.177z"/>
		<path fill="#FFFFFF" d="M171.191,50.996h-0.972v-7.244h0.972v3.022h3.643v-3.022h0.972v7.244h-0.972v-3.405h-3.643V50.996z"/>
		<path fill="#FFFFFF" d="M180.833,50.996h-1.045l2.743-7.244h1.035l2.743,7.244h-1.045l-0.683-1.872h-3.063L180.833,50.996z
			 M184.31,48.305l-1.262-3.57l-1.262,3.57H184.31z"/>
		<path fill="#FFFFFF" d="M192.947,48.119l-1.769,2.877h-1.2l1.966-2.981c-0.672-0.041-1.966-0.414-1.966-2.101
			c0-1.179,0.631-2.162,2.494-2.162h3.094v7.244h-0.972v-2.877C194.594,48.119,192.947,48.119,192.947,48.119z M192.554,44.569
			c-1.303,0-1.583,0.786-1.583,1.355c0,0.579,0.238,1.377,1.717,1.377h1.903v-2.732H192.554z"/>
		<path fill="#FFFFFF" d="M212.118,48.595c-0.124,1.045-0.745,2.617-3.063,2.617c-2.152,0-3.446-1.397-3.446-3.714
			c0-3.849,2.805-3.963,3.415-3.963c2.307,0,2.887,1.355,3.001,2.453h-0.972c-0.052-0.517-0.372-1.636-2.028-1.636
			c-1.812,0-2.381,1.521-2.381,3.105c0,1.686,0.921,2.939,2.453,2.939c1.159,0,1.986-0.766,2.049-1.8h0.971V48.595z"/>
		<path fill="#FFFFFF" d="M221.366,43.752h0.972v7.244h-0.972v-5.867l-3.86,5.867h-0.972v-7.244h0.972v5.827L221.366,43.752z"/>
		<path fill="#FFFFFF" d="M233.335,48.595c-0.124,1.045-0.745,2.617-3.062,2.617c-2.153,0-3.446-1.397-3.446-3.714
			c0-3.849,2.803-3.963,3.415-3.963c2.308,0,2.886,1.355,3.001,2.453h-0.972c-0.052-0.517-0.374-1.636-2.029-1.636
			c-1.812,0-2.381,1.521-2.381,3.105c0,1.686,0.921,2.939,2.453,2.939c1.159,0,1.986-0.766,2.049-1.8h0.971V48.595z"/>
		<path fill="#FFFFFF" d="M237.007,44.569v-0.817h5.681v0.818h-2.349v6.425h-0.972V44.57h-2.359V44.569z"/>
		<path fill="#FFFFFF" d="M251.615,46.846v0.817h-3.798v2.514h4.305v0.818h-5.277v-7.244h5.163v0.818h-4.191v2.277h3.798V46.846z"/>
		<path fill="#FFFFFF" d="M257.292,44.911h-0.021l0.021,0.279v5.806h-0.972v-7.244h1.459l2.266,5.96l2.267-5.96h1.46v7.244h-0.972
			V45.19l0.021-0.279h-0.031l-2.348,6.085h-0.786L257.292,44.911z"/>
		<path fill="#FFFFFF" d="M268.796,50.996h-1.045l2.743-7.244h1.036l2.743,7.244h-1.045l-0.683-1.872h-3.063L268.796,50.996z
			 M272.273,48.305l-1.262-3.57l-1.262,3.57H272.273z"/>
		<path fill="#FFFFFF" d="M286.849,43.535c1.614,0,3.456,0.89,3.456,3.839c0,3.787-3.012,3.839-3.456,3.839
			c-0.476,0-3.456-0.052-3.456-3.839C283.393,44.838,284.831,43.535,286.849,43.535z M286.849,50.396
			c0.507,0,2.421-0.103,2.421-3.022c0-1.707-0.755-3.022-2.421-3.022c-2.215,0-2.422,2.224-2.422,3.022
			C284.427,48.543,284.779,50.396,286.849,50.396z"/>
		<path fill="#FFFFFF" d="M295.765,46.743h2.225c0.724,0,2.421,0.114,2.421,2.152c0,0.962-0.455,2.101-2.41,2.101h-3.208v-7.244
			h5.143v0.818h-4.17L295.765,46.743L295.765,46.743z M295.765,50.177h2.029c0.766,0,1.624-0.217,1.624-1.272
			c0-1.159-0.911-1.345-1.624-1.345h-2.029V50.177z"/>
		<path fill="#FFFFFF" d="M309.07,43.752h1.024l-2.453,5.95c-0.569,1.377-1.272,1.398-1.841,1.398c-0.31,0-0.507-0.021-0.807-0.103
			v-0.848c0.228,0.083,0.445,0.114,0.683,0.114c0.403,0,0.838-0.083,1.138-1.066l-2.753-5.444h1.19l2.081,4.356L309.07,43.752z"/>
		<path fill="#FFFFFF" d="M314.769,43.752v2.122c0,1.128,0.579,1.231,1.749,1.231c0.414,0,1.066-0.052,1.407-0.072v-3.281h0.972
			v7.244h-0.972V47.85c-0.383,0.021-1.2,0.072-1.593,0.072c-1.779,0-2.536-0.341-2.536-1.893v-2.277H314.769z"/>
		<path fill="#FFFFFF" d="M328.57,46.846v0.817h-3.798v2.514h4.305v0.818H323.8v-7.244h5.163v0.818h-4.191v2.277h3.798V46.846z"/>
		<path fill="#FFFFFF" d="M334.249,50.996h-0.972v-7.244h0.972v3.022h3.643v-3.022h0.972v7.244h-0.972v-3.405h-3.643V50.996z"/>
		<path fill="#FFFFFF" d="M348.598,43.752h0.972v7.244h-0.972v-5.867l-3.86,5.867h-0.972v-7.244h0.972v5.827L348.598,43.752z"/>
		<path fill="#FFFFFF" d="M357.133,48.119l-1.77,2.877h-1.2l1.966-2.981c-0.672-0.041-1.966-0.414-1.966-2.101
			c0-1.179,0.631-2.162,2.494-2.162h3.094v7.244h-0.972v-2.877C358.779,48.119,357.133,48.119,357.133,48.119z M356.739,44.569
			c-1.303,0-1.584,0.786-1.584,1.355c0,0.579,0.238,1.377,1.717,1.377h1.905v-2.732H356.739z"/>
	</g>
	<path fill="#FFFFFF" d="M178.1,36.994h-5.533V3.474h21.954v33.52h-5.51V9.125H178.1V36.994L178.1,36.994z M200.21,36.994V3.474
		h8.921c3.324,0,5.494,0.164,6.517,0.484c1.631,0.515,2.974,1.623,4.035,3.309c1.061,1.694,1.592,3.871,1.592,6.54
		c0,2.426-0.461,4.456-1.374,6.096c-0.914,1.639-2.061,2.786-3.435,3.449c-1.366,0.663-3.73,0.999-7.086,0.999h-3.637v12.644h-5.533
		V36.994z M205.744,9.148v9.506h3.067c2.061,0,3.458-0.14,4.199-0.43c0.733-0.289,1.343-0.812,1.81-1.569
		c0.476-0.757,0.71-1.678,0.71-2.778c0-1.108-0.243-2.052-0.726-2.809c-0.492-0.764-1.092-1.272-1.81-1.538
		c-0.718-0.257-2.232-0.382-4.551-0.382L205.744,9.148L205.744,9.148z M224.725,20.441c0-3.995,0.585-7.282,1.771-9.865
		c1.178-2.583,2.724-4.512,4.629-5.775c1.905-1.264,4.214-1.897,6.93-1.897c3.933,0,7.133,1.499,9.615,4.504
		c2.474,3.005,3.715,7.282,3.715,12.83c0,5.604-1.312,9.99-3.933,13.143c-2.302,2.794-5.424,4.183-9.374,4.183
		c-3.981,0-7.119-1.382-9.42-4.137C226.035,30.275,224.725,25.944,224.725,20.441L224.725,20.441z M230.437,20.215
		c0,3.855,0.733,6.744,2.193,8.671c1.468,1.928,3.278,2.895,5.448,2.895c2.177,0,3.981-0.96,5.416-2.872
		c1.437-1.912,2.146-4.846,2.146-8.812c0-3.887-0.694-6.759-2.091-8.624c-1.39-1.858-3.216-2.786-5.471-2.786
		c-2.255,0-4.098,0.937-5.51,2.809C231.148,13.378,230.437,16.281,230.437,20.215L230.437,20.215z M272.028,3.474v3.317
		c8.023,0.398,12.027,4.784,12.027,13.167c0,8.374-4.004,12.753-12.027,13.151v3.886h-5.533v-3.887
		c-7.953-0.383-11.934-4.761-11.934-13.151c0-8.398,3.981-12.784,11.934-13.167V3.474H272.028L272.028,3.474z M272.028,12.457
		v14.977c4.394,0,6.587-2.529,6.587-7.586C278.615,14.924,276.422,12.457,272.028,12.457L272.028,12.457z M266.495,27.434V12.457
		c-4.339,0-6.516,2.521-6.516,7.547C259.978,24.961,262.155,27.434,266.495,27.434L266.495,27.434z M294.639,36.994V9.148h-8.163
		V3.474h21.837v5.674h-8.14v27.847H294.639L294.639,36.994z M311.925,36.994V3.474h20.402v5.674h-14.868v7.43h13.814v5.643h-13.814
		v9.123h15.367v5.651H311.925L311.925,36.994z M334.746,36.994l9.397-17.49l-8.53-16.03h6.493l5.51,10.77l5.401-10.77h6.423
		l-8.53,16.281l9.397,17.241h-6.697l-6.104-11.59l-6.11,11.59h-6.651V36.994z M148.13,7.408c-2.482-3.005-5.682-4.504-9.615-4.504
		c-2.716,0-5.027,0.632-6.93,1.897c-1.905,1.264-3.449,3.192-4.629,5.775c-1.186,2.584-1.771,5.869-1.771,9.865
		c0,5.502,1.312,9.834,3.933,12.986c2.302,2.755,5.44,4.137,9.421,4.137c3.95,0,7.07-1.39,9.374-4.183
		c2.622-3.153,3.933-7.539,3.933-13.143C151.845,14.689,150.605,10.412,148.13,7.408z M143.955,28.909
		c-1.436,1.912-3.239,2.872-5.416,2.872c-2.17,0-3.981-0.968-5.448-2.895c-1.46-1.928-2.193-4.815-2.193-8.671
		c0-3.933,0.71-6.837,2.131-8.717c1.413-1.874,3.254-2.809,5.51-2.809c2.255,0,4.082,0.929,5.471,2.786
		c1.397,1.866,2.092,4.737,2.092,8.624C146.101,24.063,145.391,26.998,143.955,28.909z M70.624,36.994h5.581l11.091-21.86v21.86
		h5.284V3.474h-5.558L75.908,25.811V3.474h-5.284V36.994L70.624,36.994z M116.715,25.195c-0.356,1.502-0.898,2.741-1.628,3.714
		c-1.436,1.912-3.239,2.872-5.416,2.872c-2.17,0-3.981-0.968-5.448-2.895c-1.46-1.928-2.193-4.815-2.193-8.671
		c0-3.933,0.71-6.837,2.131-8.717c1.413-1.874,3.254-2.809,5.51-2.809c2.255,0,4.082,0.929,5.471,2.786
		c0.714,0.953,1.241,2.172,1.59,3.652h5.82c-0.551-3.133-1.639-5.715-3.289-7.717c-2.482-3.005-5.682-4.504-9.615-4.504
		c-2.716,0-5.027,0.632-6.93,1.897c-1.905,1.264-3.449,3.192-4.629,5.775c-1.186,2.584-1.771,5.869-1.771,9.865
		c0,5.502,1.312,9.834,3.933,12.986c2.302,2.755,5.44,4.137,9.421,4.137c3.949,0,7.07-1.39,9.374-4.183
		c1.79-2.152,2.953-4.891,3.521-8.186C122.566,25.195,116.715,25.195,116.715,25.195z"/>
</g>
</svg>
